<?xml version="1.0" encoding="UTF-8"?>
<svg width="49px" height="47px" viewBox="0 0 49 47" version="1.1" xmlns="http://www.w3.org/2000/svg" xmlns:xlink="http://www.w3.org/1999/xlink">
    <!-- Generator: Sketch 62 (91390) - https://sketch.com -->
    <title>日历橙</title>
    <desc>Created with Sketch.</desc>
    <g id="页面-1" stroke="none" stroke-width="1" fill="none" fill-rule="evenodd">
        <g id="日历橙" fill="#FD902A" fill-rule="nonzero">
            <path d="M35,1.80769231 C35,0.795384615 34.23,0 33.25,0 C32.27,0 31.5,0.795384615 31.5,1.80769231 L31.5,3.61538462 L35,3.61538462 L35,1.80769231 Z M17.5,1.80769231 C17.5,0.795384615 16.73,0 15.75,0 C14.77,0 14,0.795384615 14,1.80769231 L14,3.61538462 L17.5,3.61538462 L17.5,1.80769231 Z M42,3.61538462 L35,3.61538462 L35,9.03846154 C35,10.0507692 34.23,10.8461538 33.25,10.8461538 C32.27,10.8461538 31.5,10.0507692 31.5,9.03846154 L31.5,3.61538462 L17.5,3.61538462 L17.5,9.03846154 C17.5,10.0507692 16.73,10.8461538 15.75,10.8461538 C14.77,10.8461538 14,10.0507692 14,9.03846154 L14,3.61538462 L7,3.61538462 C3.15,3.61538462 0,6.86923077 0,10.8461538 L0,39.7692308 C0,43.7461538 3.15,47 7,47 L42,47 C45.85,47 49,43.7461538 49,39.7692308 L49,10.8461538 C49,6.86923077 45.85,3.61538462 42,3.61538462 Z M15.75,36.1538462 L12.25,36.1538462 C11.27,36.1538462 10.5,35.3584615 10.5,34.3461538 C10.5,33.3338462 11.27,32.5384615 12.25,32.5384615 L15.75,32.5384615 C16.73,32.5384615 17.5,33.3338462 17.5,34.3461538 C17.5,35.3584615 16.73,36.1538462 15.75,36.1538462 Z M15.75,28.9230769 L12.25,28.9230769 C11.27,28.9230769 10.5,28.1276923 10.5,27.1153846 C10.5,26.1030769 11.27,25.3076923 12.25,25.3076923 L15.75,25.3076923 C16.73,25.3076923 17.5,26.1030769 17.5,27.1153846 C17.5,28.1276923 16.73,28.9230769 15.75,28.9230769 Z M26.25,36.1538462 L22.75,36.1538462 C21.77,36.1538462 21,35.3584615 21,34.3461538 C21,33.3338462 21.77,32.5384615 22.75,32.5384615 L26.25,32.5384615 C27.23,32.5384615 28,33.3338462 28,34.3461538 C28,35.3584615 27.23,36.1538462 26.25,36.1538462 Z M26.25,28.9230769 L22.75,28.9230769 C21.77,28.9230769 21,28.1276923 21,27.1153846 C21,26.1030769 21.77,25.3076923 22.75,25.3076923 L26.25,25.3076923 C27.23,25.3076923 28,26.1030769 28,27.1153846 C28,28.1276923 27.23,28.9230769 26.25,28.9230769 Z M36.75,36.1538462 L33.25,36.1538462 C32.27,36.1538462 31.5,35.3584615 31.5,34.3461538 C31.5,33.3338462 32.27,32.5384615 33.25,32.5384615 L36.75,32.5384615 C37.73,32.5384615 38.5,33.3338462 38.5,34.3461538 C38.5,35.3584615 37.73,36.1538462 36.75,36.1538462 Z M36.75,28.9230769 L33.25,28.9230769 C32.27,28.9230769 31.5,28.1276923 31.5,27.1153846 C31.5,26.1030769 32.27,25.3076923 33.25,25.3076923 L36.75,25.3076923 C37.73,25.3076923 38.5,26.1030769 38.5,27.1153846 C38.5,28.1276923 37.73,28.9230769 36.75,28.9230769 Z M43.75,18.0769231 L5.25,18.0769231 C4.27,18.0769231 3.5,17.2815385 3.5,16.2692308 C3.5,15.2569231 4.27,14.4615385 5.25,14.4615385 L43.75,14.4615385 C44.73,14.4615385 45.5,15.2569231 45.5,16.2692308 C45.5,17.2815385 44.73,18.0769231 43.75,18.0769231 Z" id="形状"></path>
        </g>
    </g>
</svg>