<?xml version="1.0" standalone="no"?><!DOCTYPE svg PUBLIC "-//W3C//DTD SVG 1.1//EN" "http://www.w3.org/Graphics/SVG/1.1/DTD/svg11.dtd"><svg class="icon" width="128px" height="128.00px" viewBox="0 0 1024 1024" version="1.1" xmlns="http://www.w3.org/2000/svg"><path d="M519.1 156.3l-6.2-0.2v0.3c-161.9 4.9-385.2 50.5-427.6 200-1.4 5.8-2.8 10.2-2.8 14.6v20.4C91 477.8 214.7 577 418.1 577l-109.5 67.3 194.8 102.2 12.8-5.8L722.5 637 513 547.9l-16.6-7.3S197.7 552.3 223.3 339c31.1-85.6 163.9-136.8 293.9-140.3 141.9-4.2 286.5 51.4 306.3 181.1H960c1.4-172.4-293-227.9-440.9-223.5z m-85.3 488l76.8-46.8 88.2 46.8-85.4 45.3-79.6-45.3z" fill="#00A75A" /><path d="M607.3 447l108.1-65.7L522 277.6 302.9 387.2l206.2 89.1 18.5 7.3s298.7-10.2 274.5 201.6c-32.7 86.2-162.1 137.4-293 140.2-143.6 3-287.3-52.5-307.2-181.1H64c0 172.4 294.4 226.4 442.3 223.5l2.8-0.1c162.1-6.1 388.4-50.1 430.9-200.1 1.4-4.4 2.9-8.8 2.9-14.7V634c-8.5-87.6-133.7-185.5-335.6-187z m-15.7-65.7l-77.9 46.2-87.1-46.2 85.4-46.8 79.6 46.8z" fill="#0070BF" /></svg>