<?xml version="1.0" standalone="no"?><!DOCTYPE svg PUBLIC "-//W3C//DTD SVG 1.1//EN" "http://www.w3.org/Graphics/SVG/1.1/DTD/svg11.dtd"><svg class="icon" width="128px" height="128.00px" viewBox="0 0 1024 1024" version="1.1" xmlns="http://www.w3.org/2000/svg"><path d="M144 649.6c-38.4-12.8-73.6-28.8-105.6-51.2 12.8 73.6 41.6 144 89.6 204.8V800c-3.2-51.2 3.2-102.4 16-150.4zM416 640c-60.8 22.4-128 32-195.2 25.6-19.2 73.6-19.2 150.4-9.6 227.2 70.4 54.4 153.6 89.6 243.2 99.2-70.4-105.6-83.2-233.6-38.4-352z m-176-211.2c-73.6-9.6-134.4-60.8-150.4-131.2-35.2 64-54.4 134.4-57.6 208 38.4 35.2 83.2 60.8 131.2 76.8 19.2-54.4 44.8-105.6 76.8-153.6z m64-80L352 300.8c22.4-44.8 9.6-99.2-32-128s-96-22.4-131.2 12.8-41.6 89.6-12.8 131.2 83.2 54.4 128 32z m588.8 464c16-44.8-3.2-96-44.8-121.6-41.6-25.6-96-16-131.2 19.2-32 35.2-35.2 89.6-9.6 128s80 54.4 128 35.2c22.4-19.2 41.6-38.4 57.6-60.8z" fill="#F2943A" /><path d="M787.2 115.2c-51.2-35.2-105.6-60.8-166.4-73.6 16 28.8 28.8 57.6 38.4 89.6 41.6-9.6 83.2-12.8 128-16z m-112 92.8c6.4 60.8 0 124.8-22.4 182.4 105.6-41.6 227.2-35.2 329.6 16-16-76.8-51.2-150.4-105.6-208-67.2-9.6-134.4-6.4-201.6 9.6z m316.8 288c-128-92.8-300.8-80-416 25.6-9.6 9.6-16 19.2-25.6 25.6-108.8 128-108.8 316.8 0 441.6 67.2-3.2 131.2-22.4 192-54.4-67.2-25.6-115.2-89.6-115.2-166.4 0-83.2 57.6-153.6 137.6-172.8s160 25.6 195.2 99.2c19.2-54.4 32-118.4 32-182.4v-16z m-467.2-22.4c54.4-60.8 83.2-140.8 83.2-220.8v-22.4c-76.8 28.8-147.2 70.4-208 128l-19.2 19.2c-57.6 60.8-102.4 134.4-134.4 214.4h25.6c83.2 0 163.2-32 224-89.6 9.6-12.8 19.2-19.2 28.8-28.8zM441.6 224c48-32 96-54.4 150.4-73.6-12.8-44.8-35.2-83.2-64-118.4h-9.6c-67.2 0-131.2 12.8-192 41.6 60.8 22.4 108.8 80 115.2 150.4z" fill="#F2943A" /><path d="M544 547.2c9.6-9.6 19.2-16 25.6-25.6 118.4-105.6 294.4-118.4 422.4-25.6 0-28.8-3.2-60.8-9.6-89.6-102.4-51.2-224-57.6-332.8-16 22.4-57.6 28.8-121.6 22.4-182.4 67.2-16 137.6-19.2 204.8-9.6-25.6-32-57.6-57.6-92.8-83.2-44.8 0-86.4 6.4-128 16-9.6-32-22.4-60.8-38.4-89.6-32-6.4-64-9.6-92.8-9.6 28.8 35.2 51.2 73.6 67.2 118.4-57.6 19.2-108.8 41.6-156.8 73.6-6.4-70.4-54.4-128-118.4-150.4-96 41.6-176 115.2-227.2 208 19.2 70.4 80 124.8 150.4 134.4-32 48-60.8 102.4-80 156.8-48-16-92.8-41.6-131.2-76.8v19.2c0 25.6 3.2 51.2 6.4 76.8 32 22.4 67.2 38.4 105.6 51.2-12.8 51.2-16 102.4-16 153.6v3.2c25.6 32 54.4 64 86.4 89.6-12.8-76.8-9.6-153.6 9.6-230.4 67.2 6.4 134.4 0 195.2-25.6-44.8 118.4-28.8 252.8 38.4 358.4h86.4c-108.8-128-108.8-316.8 3.2-444.8zM156.8 240c0-41.6 25.6-80 67.2-96s86.4-6.4 115.2 25.6 35.2 76.8 16 115.2l-48 48c-32 16-70.4 12.8-99.2-6.4-32-19.2-51.2-51.2-51.2-86.4z m108.8 348.8h-25.6c28.8-80 73.6-153.6 134.4-211.2l19.2-19.2c60.8-57.6 131.2-99.2 208-128v22.4c0 83.2-28.8 160-83.2 220.8-9.6 9.6-19.2 16-25.6 25.6-60.8 57.6-144 89.6-227.2 89.6z" fill="#FED966" /><path d="M800 588.8c-48 0-92.8 19.2-124.8 51.2s-51.2 76.8-51.2 124.8c0 76.8 51.2 140.8 118.4 166.4 35.2-19.2 70.4-41.6 102.4-70.4-44.8 19.2-99.2 6.4-128-35.2-28.8-38.4-25.6-92.8 9.6-131.2 35.2-35.2 89.6-44.8 131.2-19.2 41.6 25.6 60.8 76.8 44.8 121.6 25.6-32 48-67.2 64-105.6-35.2-60.8-99.2-102.4-166.4-102.4z" fill="#FED966" /></svg>