<?xml version="1.0" standalone="no"?><!DOCTYPE svg PUBLIC "-//W3C//DTD SVG 1.1//EN" "http://www.w3.org/Graphics/SVG/1.1/DTD/svg11.dtd"><svg t="1573315124474" class="icon" viewBox="0 0 1024 1024" version="1.1" xmlns="http://www.w3.org/2000/svg" p-id="3863" xmlns:xlink="http://www.w3.org/1999/xlink" width="128" height="128"><defs><style type="text/css"></style></defs><path d="M498.989003-0.014627l-12.87204 1.19944-25.934234 1.170185-25.934234 3.539811-12.915922 2.340371-12.97443 2.354998-11.774991 2.340371-12.886667 3.539811-23.549981 7.079621-23.579236 7.03574-23.520727 9.405365-22.365169 10.619433-22.350541 11.774991-10.619433 5.850927-10.575551 5.894809-10.57555 7.079622-10.648688 5.865554-19.980915 15.285547-9.361484 7.079622-10.63406 7.079621-17.655172 16.441106-17.625918 17.699054-9.43462 8.191298-8.205925 9.449247-8.249807 8.220553-8.279062 9.434619-14.115361 19.995544-15.256293 20.024798-12.974431 21.151101-5.894809 10.619432-5.880181 10.575551-11.774991 22.379796-10.590178 22.379796-8.205925 23.520727-8.205925 23.520727-7.108877 23.549981-5.909436 24.720167-4.680742 25.890352-3.525183 25.861098-1.19944 25.919607L0.021943 511.926863v12.989058l1.140931 12.915922 1.19944 27.060538 3.539811 24.720166 2.34037 12.959804 2.340371 12.945176 2.354998 11.774991 3.539811 12.945176 7.108877 23.535354 8.205925 24.720167 8.205925 22.365169 10.590178 23.520726 11.774991 21.165729 5.880181 11.804245 5.894809 10.546296 7.079622 10.619433 5.894809 9.405365 15.256293 20.039425 7.079621 10.590178 7.03574 9.419993 16.528869 18.825358 17.640545 17.640545 8.249807 8.220552 9.376111 8.23518 8.279062 8.249807 9.37611 8.23518 19.995544 15.285547 19.980915 14.115362 21.224238 12.989058 10.575551 5.865554 10.619433 7.079622 22.350541 10.604805 22.365169 10.546296 23.520727 9.419993 23.564608 8.264434 23.549982 5.850927 24.676285 5.909437 25.890352 4.695369 25.934234 3.539811L486.087709 1023.912236h47.026826l19.995543-1.19944 19.980916-2.340371 10.648687-1.170185 9.43462-1.19944 19.966289-3.510556 18.825358-4.724624 20.01017-4.680742 18.86924-5.894809 17.640545-7.050367 18.796103-7.108876 17.684427-7.03574 17.655173-8.249807 17.655172-9.405365 16.455733-9.405366 16.484987-10.590178 15.314801-10.604805 15.285547-11.774991 15.285547-11.760363 14.115362-12.945176 14.17387-12.945176 14.115362-14.115362 12.886667-12.945176 12.974431-15.285547 11.789618-15.314802 10.57555-15.285547 11.774991-15.314801 9.419993-16.455732 10.57555-17.655173 8.23518-16.528869 8.220553-17.640545 8.235179-17.625918 7.079622-18.825358h-71.790875l10.590178 24.70554-110.626403 161.207668H216.535499L97.70317 724.973745 358.947064 50.610519l148.291746 353.059566L648.450935 47.070708l135.317315 316.564409H1002.724568l-7.064994-18.825358-7.050367-19.995543-7.064995-18.810731-9.449247-17.655172-8.23518-18.86924-10.560923-17.61129-10.575551-16.484987-10.63406-16.484987-12.915921-16.455733-5.880182-8.264434-5.909436-8.220553-12.974431-15.314801-14.115361-14.144616-14.115362-14.115362-15.285547-14.115361-15.256292-12.945177-15.358684-11.760363-16.41185-11.774991-16.543496-11.745736-17.655173-10.604805-17.655172-9.419993-17.625918-9.405365-18.810731-8.249807-18.825357-8.205925-9.419993-3.569066-9.43462-3.539811-20.024798-5.865554-19.995543-5.880182L617.879841 10.590178 596.67023 7.064994 576.645432 3.510556 555.523586 2.340371l-22.379796-2.369626h-34.154787zM469.55884 719.078936h283.652944l-144.766563-350.719195L469.55884 719.078936z m-290.659429 0H462.537727l-144.766563-350.719195-138.886381 350.719195z m616.658457-327.198469l9.419993 21.194984h209.536325l-4.739251-21.194984H795.557868z m21.194984 49.425707l8.235179 21.194983h196.532641l-2.311117-21.209611H816.752852z m21.194983 49.440333l8.264434 21.165729h177.678028v-21.151101H837.947835z m20.01017 49.411079l9.449248 21.209611h154.113419l2.369625-21.209611H857.958005z m21.165729 49.440334l9.449247 21.209611h125.941205l3.466675-21.209611H879.123734z m21.194983 49.440334l9.43462 20.01017h92.971231l5.909437-20.024797h-108.315288z" fill="#e40012" p-id="3864"></path></svg>