<?xml version="1.0" standalone="no"?><!DOCTYPE svg PUBLIC "-//W3C//DTD SVG 1.1//EN" "http://www.w3.org/Graphics/SVG/1.1/DTD/svg11.dtd"><svg t="1573315096847" class="icon" viewBox="0 0 1024 1024" version="1.1" xmlns="http://www.w3.org/2000/svg" p-id="3381" xmlns:xlink="http://www.w3.org/1999/xlink" width="128" height="128"><defs><style type="text/css"></style></defs><path d="M512 1024C229.236364 1024 0 794.763636 0 512S229.236364 0 512 0s512 229.236364 512 512-229.236364 512-512 512z m-136.541091-741.632l-4.491636 6.702545c-55.016727 45.870545-89.832727 100.677818-160.581818 107.403637-34.816-1.140364-32.581818-35.816727-32.581819-38.050909 0-1.117091-38.167273 42.519273-38.167272 74.938182 0 33.559273 25.832727 64.884364 64 64.884363 37.073455 0 67.397818-19.013818 67.397818-19.013818-3.374545 42.519273-3.374545 87.272727 7.842909 126.394182 46.056727 166.679273 220.113455 266.24 389.678545 221.486545 30.324364-8.96 46.033455-19.013818 61.765819-31.325091 0 0 30.324364-21.248 55.016727-55.924363 15.732364-17.92 28.090182-55.924364 29.207273-64.884364 0 0-11.240727 19.013818-19.083637 25.739636-10.123636 5.585455-16.849455 11.170909-20.224 12.288 0 0 11.240727-11.170909 22.458182-26.833454 19.083636-24.622545 14.592-41.402182 15.732364-48.104727 0 0-7.866182 19.013818-17.966546 29.090909-10.123636 10.053818-15.732364 7.819636-15.732363 7.819636 2.257455-10.053818 14.592-24.599273 14.592-24.599273-16.826182 8.936727-33.675636 33.559273-53.899637 48.081455-23.575273 20.154182-64 43.636364-96.581818 51.456-111.150545 29.090909-224.581818-34.676364-253.789091-144.290909-30.301091-109.614545 35.933091-221.463273 147.130182-250.554182 58.391273-15.662545 113.408-4.468364 160.581818 24.622545 4.491636 3.351273 20.200727 12.288 24.692364 19.013819 14.615273-42.519273 71.866182-35.793455 60.648727-72.704-26.949818-43.636364-39.307636 3.351273-106.682182-34.676364-10.100364-11.194182 1.117091-16.779636-6.749091-32.442182-17.966545-24.622545-53.899636-13.428364-64-17.92-10.100364-4.445091-16.849455-29.067636-19.083636-31.301818a300.497455 300.497455 0 0 0-88.715636 10.077091c-49.408 12.288-88.715636 34.676364-122.414546 62.626909z m153.832727 189.044364c-15.709091 0-31.418182 14.545455-31.418181 31.301818v95.092363c0 17.896727 13.474909 31.325091 31.418181 31.325091h153.856c17.966545 0 31.441455-13.428364 31.441455-31.325091V502.690909c0-17.896727-13.474909-31.301818-31.418182-31.301818h-153.856z" fill="#e40012" p-id="3382"></path></svg>