<?xml version="1.0" standalone="no"?><!DOCTYPE svg PUBLIC "-//W3C//DTD SVG 1.1//EN" "http://www.w3.org/Graphics/SVG/1.1/DTD/svg11.dtd"><svg class="icon" width="128px" height="128.00px" viewBox="0 0 1024 1024" version="1.1" xmlns="http://www.w3.org/2000/svg"><path d="M61.44 509.0816C61.44 756.30592 261.85728 956.7232 509.0816 956.7232c247.22432 0 447.6416-200.41728 447.6416-447.6416C956.7232 261.85728 756.30592 61.44 509.0816 61.44 261.85728 61.44 61.44 261.85728 61.44 509.0816z" fill="#6A1684" /><path d="M143.33952 349.40928H306.9952s30.86336 0 36.68992 8.73472h-30.28992v9.3184l46.592 0.57344s7.5776 5.25312 7.5776 9.3184l-54.1696 0.59392v8.72448h59.99616s6.99392 3.50208 5.25312 11.0592H191.70304v9.91232l189.82912-0.58368s1.16736 7.5776 1.16736 9.90208H191.70304v9.89184l191.58016-0.5632s1.16736 5.81632-1.7408 9.89184l-189.83936 1.75104v9.3184l186.94144-1.16736s0 7.5776-4.66944 9.90208l-182.272 1.16736v8.72448l176.45568-1.15712s-0.60416 9.3184-7.00416 11.0592l-169.45152 0.58368v9.3184l155.48416-1.15712s-3.4816 11.65312-27.38176 10.47552l-29.09184-0.57344v8.73472l47.1552 0.57344s19.80416 0 22.72256 8.15104l-69.888 1.76128v8.73472h82.10432s7.5776 5.81632 7.5776 9.3184l-188.68224 1.16736v10.48576l192.75776-1.7408s7.5776 5.23264 7.5776 10.48576l-200.32512 1.15712v8.74496H394.9568s2.31424 2.9184 1.15712 8.16128l-204.41088 1.7408v8.71424h204.41088s1.7408 5.24288 0 9.3184l-204.41088 1.1776v9.3184h202.67008s1.7408 5.81632-2.90816 10.48576H191.6928v9.3184l195.66592-0.60416s-0.57344 9.33888-4.66944 9.92256h-69.30432v9.90208l59.99616-0.59392s-4.096 9.3184-8.15104 10.496l-51.84512 0.59392v9.89184l34.95936-0.58368s-5.26336 11.0592-51.24096 9.3184l-153.76384-0.58368V349.40928h-0.01024z" fill="#FBE900" /><path d="M409.4976 556.7488s-5.23264-43.1104 43.69408-51.26144c0 0 90.8288-18.6368 93.184 37.85728l1.7408 104.82688 5.8368 18.06336-46.592 1.16736-2.92864-16.31232s-23.296 24.4736-61.15328 15.7184c0 0-40.7552-2.90816-40.7552-47.7696 0 0-1.75104-29.68576 26.20416-40.17152 0 0 45.42464-12.82048 59.40224-12.82048 0 0 30.86336-5.25312 4.6592-26.80832 0 0-38.44096-8.72448-39.59808 16.896l-43.70432 0.6144z m152.576-48.93696h44.27776l-0.60416 16.896s24.4736-25.0368 43.1104-22.72256c0 0 47.18592-9.3184 56.50432 46.0288l1.14688 118.784h-43.66336l-0.58368-107.14112s-12.22656-30.8736-43.66336-11.0592c0 0-14.00832 5.23264-11.6736 41.33888l0.59392 76.87168-44.24704-0.57344-1.18784-158.4128z m160.1536-64.64512l40.78592 0.58368 2.31424 121.1392 49.5104-64.64512h50.66752l-46.00832 63.488 55.32672 101.3248-51.24096 1.7408-35.5328-65.20832-21.5552 29.12256 0.58368 35.5328h-43.69408l-1.15712-223.0784z" fill="#FFFFFF" /><path d="M503.82848 590.53056s-0.5632 16.88576 0 20.3776c0 0-5.23264 16.88576-19.78368 19.80416 0 0-27.97568 16.87552-37.29408-4.64896 0 0-4.06528-12.83072 9.3184-18.06336 0.01024-0.01024 45.44512-11.66336 47.75936-17.46944z" fill="#6A1684" /></svg>