<?xml version="1.0" standalone="no"?><!DOCTYPE svg PUBLIC "-//W3C//DTD SVG 1.1//EN" "http://www.w3.org/Graphics/SVG/1.1/DTD/svg11.dtd"><svg class="icon" width="128px" height="98.92px" viewBox="0 0 1325 1024" version="1.1" xmlns="http://www.w3.org/2000/svg"><path d="M647.60434684 445.17898013c123.36188189 0 231.30352981 10.28015673 323.82494152 29.1271111 56.54086315 11.99351581 101.08820935 22.27367367 137.06875789 37.69390877L630.47075268 35.68606549 157.58353632 510.28664093c41.12062691-13.70687602 94.23477077-29.12711111 157.62907249-37.69390877 101.08820935-20.56031346 212.45657543-27.41375203 332.39173802-27.41375203z" fill="#FCCF00" /><path d="M630.47075268 990.02729358l474.60057429-474.60057429c-66.82101987-5.14007837-157.62907136-5.14007837-272.42415674 3.42671815-119.93516373 8.56679765-203.88977778 20.56031346-251.86384326 34.26718947-42.83398713 13.70687602-63.39430059 30.84047019-59.96758131 53.11414386 0 6.85343744 3.42671929 13.70687602 10.28015674 22.27367368l11.99351693 10.28015672c17.13359531 11.99351581 25.70039182 17.13359531 29.12711113 20.56031346 15.42023509 13.70687602 20.56031346 29.12711111 17.13359416 49.68742571-6.85343744 25.70039182-59.9675813 54.82750293-157.62907137 82.24125497l198.74969943 198.74969827z" fill="#293C8F" /></svg>