<?xml version="1.0" standalone="no"?><!DOCTYPE svg PUBLIC "-//W3C//DTD SVG 1.1//EN" "http://www.w3.org/Graphics/SVG/1.1/DTD/svg11.dtd"><svg class="icon" width="128px" height="128.00px" viewBox="0 0 1024 1024" version="1.1" xmlns="http://www.w3.org/2000/svg"><path fill="#ffc730" d="M614.4 315.733333v618.666667c29.866667-8.533333 59.733333-17.066667 85.333333-29.866667V196.266667c-8.533333 4.266667-25.6 12.8-42.666666 25.6-25.6 21.333333-42.666667 51.2-42.666667 93.866666M362.666667 217.6c-12.8-12.8-34.133333-21.333333-42.666667-25.6v708.266667c25.6 12.8 55.466667 25.6 85.333333 29.866666V315.733333c0-42.666667-12.8-72.533333-42.666666-98.133333"  /><path fill="#ffc730" d="M686.933333 110.933333c-55.466667-25.6-115.2-38.4-174.933333-38.4s-119.466667 12.8-170.666667 38.4c-8.533333 4.266667-21.333333 8.533333-21.333333 25.6 0 21.333333 29.866667 17.066667 72.533333 51.2 38.4 25.6 55.466667 68.266667 55.466667 115.2v640c21.333333 4.266667 42.666667 4.266667 64 4.266667s42.666667 0 64-4.266667v-640c0-46.933333 21.333333-89.6 55.466667-119.466666 38.4-29.866667 72.533333-25.6 72.533333-51.2 0-8.533333-12.8-17.066667-17.066667-21.333334"  /><path fill="#ffc730" d="M512 981.333333C251.733333 981.333333 42.666667 768 42.666667 512S251.733333 42.666667 512 42.666667s469.333333 209.066667 469.333333 469.333333-209.066667 469.333333-469.333333 469.333333m0-981.333333C230.4 0 0 230.4 0 512s230.4 512 512 512 512-230.4 512-512S793.6 0 512 0"  /><path fill="#ffc730" d="M76.8 512c0 153.6 81.066667 290.133333 204.8 366.933333v-332.8c-51.2 0-68.266667 29.866667-72.533333 42.666667-4.266667 8.533333-8.533333 21.333333-17.066667 21.333333-12.8 0-25.6-42.666667-25.6-93.866666s12.8-93.866667 25.6-93.866667c8.533333 0 12.8 8.533333 17.066667 21.333333 4.266667 12.8 25.6 42.666667 72.533333 42.666667v-341.333333C157.866667 217.6 76.8 354.133333 76.8 512m802.133333 76.8c-4.266667 8.533333-8.533333 21.333333-17.066666 21.333333-12.8 0-25.6-42.666667-25.6-93.866666s12.8-93.866667 25.6-93.866667c8.533333 0 12.8 8.533333 17.066666 21.333333 4.266667 12.8 21.333333 38.4 72.533334 42.666667-8.533333-145.066667-85.333333-268.8-200.533334-341.333333v738.133333c110.933333-72.533333 192-196.266667 200.533334-332.8-51.2 0-68.266667 25.6-72.533334 38.4"  /></svg>