<?xml version="1.0" standalone="no"?><!DOCTYPE svg PUBLIC "-//W3C//DTD SVG 1.1//EN" "http://www.w3.org/Graphics/SVG/1.1/DTD/svg11.dtd"><svg class="icon" width="128px" height="128.00px" viewBox="0 0 1024 1024" version="1.1" xmlns="http://www.w3.org/2000/svg"><path d="M0 508.65981C0 789.577143 228.815238 1017.319619 511.097905 1017.319619c282.270476 0 511.085714-227.742476 511.085714-508.659809C1022.183619 227.718095 793.368381 0 511.097905 0 228.815238 0 0 227.730286 0 508.65981z" fill="#004186" /><path d="M877.446095 516.608c0-112.274286-127.768381-205.653333-285.500952-205.653333-127.75619 0-233.569524 59.611429-270.506667 140.080762-2.998857 5.961143-4.998095 15.896381-4.998095 21.857523 0 18.870857 9.984 40.728381 28.952381 49.676191l141.738667 100.327619c7.996952 2.986667 15.969524 5.973333 25.965714 5.973333 9.97181 0 17.956571-2.986667 25.953524-5.973333l137.752381-96.353524c7.984762-5.973333 12.970667-15.896381 12.970666-27.818667s-4.998095-18.883048-12.970666-27.818666l-48.920381-37.753905-113.798096 80.469333-85.845333-59.611428c33.938286-37.741714 93.830095-59.611429 166.704762-59.611429 103.814095 0 192.658286 52.662857 192.658286 118.235429-2.986667 103.314286-127.768381 183.783619-280.502857 174.848-152.722286-8.935619-276.504381-92.40381-271.518477-195.718095 0-137.094095 150.735238-243.395048 330.410667-243.395048 15.969524 0 33.950476 0 46.933333 2.974476-35.949714-15.896381-82.858667-27.806476-134.777904-27.806476-51.907048 0-77.860571 5.961143-111.786667 15.88419-130.779429 52.662857-221.622857 152.015238-221.622857 268.239238 0 155.977143 166.704762 284.135619 369.347047 284.13562 202.642286 0 363.361524-116.23619 363.361524-275.18781z" fill="#FFFFFF" /></svg>