<?xml version="1.0" standalone="no"?><!DOCTYPE svg PUBLIC "-//W3C//DTD SVG 1.1//EN" "http://www.w3.org/Graphics/SVG/1.1/DTD/svg11.dtd"><svg t="1573315481936" class="icon" viewBox="0 0 1024 1024" version="1.1" xmlns="http://www.w3.org/2000/svg" p-id="6907" xmlns:xlink="http://www.w3.org/1999/xlink" width="128" height="128"><defs><style type="text/css"></style></defs><path d="M468.85546667 321.9456v4.36906667h4.36906666l2.18453334 1.6384 6.5536 2.18453333h60.07466666l6.5536-2.18453333 2.18453334-1.6384h2.18453333l2.18453333-4.36906667 1.6384-2.18453333V6.82666667l-21.2992-2.18453334h-46.96746666l-23.48373334 2.18453334v304.19626666l2.18453334 8.73813334z" fill="#009174" p-id="6908"></path><path d="M1015.53493333 445.91786667l-2.18453333-21.2992-4.36906667-21.2992-6.00746666-21.2992-13.1072-40.96-6.5536-21.2992-8.192-19.6608-21.84533334-38.22933334-10.37653333-17.47626666-10.92266667-19.11466667-12.56106666-16.93013333-13.1072-16.93013334-27.8528-30.58346666-15.29173334-14.7456-16.93013333-15.29173334-14.7456-14.7456-17.47626667-13.1072-16.93013333-10.37653333-19.11466667-13.1072-17.47626666-10.37653333-19.11466667-8.73813334-19.11466667-10.92266666-21.84533333-8.192-19.11466667-6.5536-21.2992-6.5536-43.14453333-12.56106667V341.06026667l-4.36906667 6.5536-3.82293333 2.18453333-6.5536 2.18453333-8.73813333 2.18453334H535.48373333l-4.36906666 2.18453333-2.18453334 3.82293333-2.18453333 4.36906667v148.00213333l2.18453333-2.18453333 2.18453334-2.18453333h126.70293333l8.73813333-2.18453334h3.82293334l4.36906666-2.18453333 2.18453334-4.36906667 2.18453333-2.18453333 2.18453333-3.82293333V141.7216l25.66826667 13.1072 25.66826667 14.7456 23.48373333 17.47626667 21.84533333 16.93013333 21.2992 19.11466667 19.11466667 21.2992 19.11466667 24.02986666 17.47626666 21.2992 12.56106667 25.66826667 15.29173333 25.66826667 10.37653334 27.8528 4.36906666 13.1072 4.36906667 12.56106666L910.67733333 424.61866667l6.5536 30.03733333v15.29173333l2.18453334 14.7456 2.18453333 30.03733334-2.18453333 38.77546666-2.18453334 19.11466667-4.36906666 16.93013333-2.18453334 19.6608-6.5536 16.93013334-10.92266666 34.4064-6.00746667 16.93013333-8.73813333 17.47626667-8.73813334 14.7456-8.192 16.93013333-8.73813333 15.29173333-10.92266667 14.7456-10.37653333 13.1072-13.1072 14.7456-10.37653333 13.1072-13.1072 12.56106667-27.8528 24.02986667-15.29173334 10.37653333-12.56106666 10.92266667-15.29173334 8.192-16.93013333 8.73813333-14.7456 8.73813333-17.47626667 8.73813334-16.93013333 6.00746666-8.73813333 4.36906667-8.192 2.18453333-17.47626667 4.36906667-16.93013333 6.5536-19.6608 2.18453333-19.11466667 4.36906667v-240.29866667h90.112l8.73813333-2.18453333 3.82293334-2.18453333h4.36906666l2.18453334-4.36906667 2.18453333-2.18453333 2.18453333-3.82293334v-152.3712l-4.36906666 4.36906667-6.5536 4.36906667-6.00746667 2.18453333-6.5536 2.18453333H535.48373333l-4.36906666 1.6384-2.18453334 4.36906667-2.18453333 4.36906667v141.44853333h-31.67573333v-145.8176l-4.36906667-4.36906667-4.36906667-1.6384H363.99786667l-6.5536-2.18453333-6.00746667-2.18453333-6.5536-4.36906667-2.18453333-2.18453333-2.18453334-2.18453334v145.8176l2.18453334 6.5536v3.82293334l2.18453333 2.18453333 4.36906667 4.36906667h4.36906666l1.6384 2.18453333 8.73813334 2.18453333h90.112v240.29866667l-19.11466667-4.36906667-17.47626667-2.18453333-16.93013333-6.5536-19.11466667-4.36906667-17.47626666-6.5536-16.93013334-6.00746666-15.29173333-8.73813334-16.93013333-8.73813333-30.03733334-16.93013333-14.7456-10.92266667-15.29173333-10.37653333-25.66826667-24.02986667-13.1072-12.56106667-12.56106666-13.1072-10.92266667-14.7456-10.37653333-15.29173333-21.84533334-27.8528-16.93013333-31.67573333-6.5536-17.47626667-6.00746667-16.93013333-4.36906666-8.73813334-2.18453334-8.73813333-6.5536-16.93013333-4.36906666-16.93013334-4.36906667-19.6608-2.18453333-19.11466666-2.18453334-16.93013334-2.18453333-19.6608v-19.11466666l2.18453333-30.03733334v-14.7456l2.18453334-15.29173333L113.32266667 424.61866667l6.5536-27.8528 10.92266666-27.8528 3.82293334-14.7456 6.5536-13.1072 13.1072-25.66826667 14.7456-23.48373333 16.93013333-23.48373334 17.47626667-24.02986666 19.11466666-21.2992 21.84533334-19.11466667 23.48373333-16.93013333 23.48373333-17.47626667 23.48373334-14.7456 25.66826666-13.1072v345.15626667l2.18453334 6.5536v3.82293333l2.18453333 2.18453333 4.36906667 4.36906667 2.18453333 2.18453333h3.82293333l8.73813334 2.18453334h126.70293333l4.36906667 4.36906666V360.17493333l-4.36906667-3.82293333-4.36906667-2.18453333H428.4416l-6.5536-2.18453334-6.5536-2.18453333-6.00746667-2.18453333-2.18453333-2.18453334-2.18453333-4.36906666V15.5648l-21.2992 6.00746667-21.84533334 6.5536-21.2992 6.5536-19.11466666 6.5536-19.6608 8.192-19.11466667 10.92266666-19.11466667 8.73813334-19.11466666 10.37653333-17.47626667 13.1072-16.93013333 12.56106667-34.4064 25.66826666-15.29173334 15.29173334-14.7456 14.7456-14.7456 15.29173333-13.1072 15.29173333-13.1072 16.93013334-12.56106666 16.93013333-13.1072 19.11466667-10.37653334 17.47626666-10.92266666 19.11466667-8.73813334 19.11466667-8.192 19.6608-8.73813333 21.2992-13.1072 40.96-3.82293333 21.2992-4.36906667 21.2992-4.36906667 21.2992-2.18453333 24.02986666-2.18453333 21.2992v49.152l2.18453333 25.66826667 4.36906667 25.66826667 4.36906666 25.66826666 6.00746667 23.48373334 6.5536 25.66826666 8.73813333 24.02986667 8.73813334 21.2992 10.37653333 23.48373333 10.92266667 21.2992 12.56106666 21.84533334 13.1072 21.2992 12.56106667 19.11466666 15.29173333 19.11466667 16.93013334 19.6608 17.47626666 16.93013333 16.93013334 17.47626667 19.11466666 14.7456 19.6608 14.7456 19.11466667 15.29173333 21.2992 13.1072 21.84533333 12.56106667 21.2992 10.92266667 21.2992 10.37653333 23.48373334 8.73813333 23.48373333 8.73813334 24.02986667 6.5536 25.66826666 6.00746666 25.66826667 4.36906667 25.66826667 2.18453333 25.66826666 2.18453334 25.66826667 2.18453333 25.66826667-2.18453333 25.66826666-2.18453334 25.66826667-2.18453333 25.66826667-4.36906667 24.02986666-6.00746666 23.48373334-6.5536 25.66826666-8.73813334 21.2992-8.73813333 23.48373334-10.37653333 21.2992-10.92266667 21.84533333-12.56106667 21.2992-13.1072 19.11466667-15.29173333 19.11466666-14.7456 19.6608-14.7456 16.93013334-17.47626667 17.47626666-16.93013333 14.7456-19.6608 15.29173334-19.11466667 14.7456-19.11466666 13.1072-21.2992 12.56106666-21.84533334 10.92266667-21.2992 10.37653333-23.48373333 8.73813334-21.2992 8.73813333-24.02986667 6.5536-25.66826666 6.00746667-23.48373334 4.36906666-25.66826666 2.18453334-25.66826667 2.18453333-25.66826667V469.94773333z" fill="#009174" p-id="6909"></path></svg>