<?xml version="1.0" standalone="no"?><!DOCTYPE svg PUBLIC "-//W3C//DTD SVG 1.1//EN" "http://www.w3.org/Graphics/SVG/1.1/DTD/svg11.dtd"><svg class="icon" width="128px" height="128.00px" viewBox="0 0 1024 1024" version="1.1" xmlns="http://www.w3.org/2000/svg"><path d="M229.656576 154.779648c1.366016-0.858112 7.31136-8.2944 18.569216-9.609216 0 0-3.366912 10.346496-15.151104 13.502464 0 0 10.520576 0.78848 13.78304 9.20576 0 0-8.224768 7.084032-18.18624-4.524032 0 0 6.52288 11.712512-5.36576 18.464768 0 0-7.610368-4.225024 0.385024-16.922624 0 0-10.924032 12.064768-18.395136 9.310208 0 0-0.403456-6.680576 15.888384-12.976128 0 0-12.57472 0.684032-15.325184-7.084032 0 0 6.121472-7.206912 18.18624 1.998848 0 0-6.961152-12.414976 4.173824-21.551104 0.002048 0 7.489536 6.856704 1.437696 20.185088zM914.989056 430.598144c-0.12288-2.629632-1.10592-9.259008 1.875968-16.816128-0.350208 0.243712-15.151104-1.03424-13.029376 6.189056 1.314816 4.560896 7.610368 3.753984 11.153408 10.627072zM535.707648 309.917696c1.193984-1.437696 2.156544-2.68288 2.664448-3.946496-0.894976 1.03424-2.332672 1.718272-3.997696 2.279424l1.333248 1.667072zM833.41312 238.811136c2.349056-7.839744 8.013824-12.118016 11.485184-10.11712 5.154816 2.963456-0.964608 9.136128-8.347648 12.171264 6.961152-2.56 14.81728-1.998848 14.133248 3.035136-0.630784 4.681728-7.153664 6.27712-14.974976 1.140736 6.27712 5.36576 6.961152 12.345344 2.455552 13.940736-4.575232 1.59744-7.698432-3.209216-6.733824-12.468224-1.998848 8.802304-7.942144 12.292096-10.870784 10.870784-4.62848-2.174976-3.823616-7.663616 7.839744-13.152256-8.925184 3.313664-14.870528 1.140736-14.239744-2.629632 0.735232-4.225024 8.17152-4.980736 15.01184-1.366016-4.050944-2.752512-6.961152-11.327488-1.193984-13.203456 3.612672-1.193984 7.839744 2.859008 5.43744 11.782144l-0.002048-0.004096zM986.42944 391.493632c8.067072-8.241152 18.640896-9.609216 22.253568-4.75136 5.382144 7.13728-6.926336 10.749952-19.044352 9.435136 11.380736 1.59744 21.901312 7.663616 17.938432 13.449216-3.700736 5.36576-13.819904 2.912256-21.587968-8.873984 5.490688 10.97728 2.226176 20.078592-5.033984 18.97472-7.43424-1.122304-8.978432-9.187328-1.947648-20.006912-8.118272 9.486336-18.569216 9.785344-21.83168 6.066176-5.138432-5.945344-0.735232-12.171264 18.921472-10.97728-14.52032-2.052096-21.499904-8.802304-18.290688-12.976128 3.59424-4.857856 14.39744-0.684032 21.95456 8.521728-4.050944-6.172672-3.035136-18.745344 6.172672-17.2544 5.824512 0.894976 9.365504 8.9088 0.495616 18.393088zM940.992512 320.720896c2.963456-10.1888 10.346496-15.60576 14.747648-13.029376 6.627328 3.823616-1.193984 11.88864-10.678272 15.765504 8.978432-3.366912 18.97472-2.629632 18.16576 3.893248-0.735232 6.066176-9.187328 8.118272-19.27168 1.366016 8.067072 6.979584 8.978432 15.888384 3.155968 17.956864-5.892096 2.174976-9.996288-4.016128-8.699904-16.009216-2.56 11.433984-10.274816 15.888384-13.993984 14.063616-6.014976-2.859008-4.980736-9.889792 10.100736-16.922624-11.538432 4.225024-19.202048 1.472512-18.343936-3.436544 0.980992-5.490688 10.467328-6.4 19.376128-1.824768-5.277696-3.54304-9.048064-14.467072-1.667072-17.027072 4.698112-1.490944 10.242048 3.66592 7.102464 15.202304l0.006144 0.002048zM732.352512 239.44192c11.415552-12.013568 25.602048-14.39744 30.0032-7.663616 6.52288 10.06592-10.170368 15.659008-26.179584 14.290944 14.870528 1.824768 28.40576 9.996288 22.64064 18.464768-5.43744 7.839744-18.640896 4.804608-27.951104-11.76576 6.27712 15.484928 1.193984 28.635136-8.398848 27.392-9.785344-1.261568-11.083776-12.8-0.735232-28.583936-11.712512 14.063616-25.618432 14.852096-29.599744 9.592832-6.27712-8.17152 0.17408-17.32608 26.179584-16.467968-19.0976-2.279424-27.795456-11.538432-23.148544-17.780736 5.261312-7.030784 19.202048-1.542144 28.40576 11.206656-4.804608-8.628224-2.297856-26.689536 9.766912-24.866816 7.645184 1.073152 11.589632 12.347392-0.98304 26.181632zM543.582208 106.100736c2.121728-8.17152 9.048064-12.396544 13.78304-10.11712 6.961152 3.330048-0.227328 9.592832-9.363456 12.45184 8.681472-2.402304 18.85184-1.45408 18.640896 3.823616-0.29696 4.892672-8.574976 6.295552-19.27168 0.49152 8.681472 5.945344 10.467328 13.326336 4.788224 14.800896-5.840896 1.542144-10.520576-3.629056-10.223616-13.398016-1.542144 9.222144-8.925184 12.609536-12.906496 10.995712-6.189056-2.490368-5.840896-8.259584 8.66304-13.502464-11.206656 3.086336-19.132416 0.544768-18.72896-3.401728 0.509952-4.489216 9.924608-4.911104 19.324928-0.858112-5.541888-3.035136-10.346496-12.118016-3.086336-13.940736 4.524032-1.093632 10.573824 3.360768 8.380416 12.654592zM387.303424 177.698816c-1.140736-7.43424-19.7632-21.323776-35.895296-22.288384 16.009216-8.505344 23.498752-5.033984 23.498752-5.033984 10.97728 2.402304 15.325184 20.92032 21.147648 19.0976 3.086336-1.59744 8.347648-5.996544 8.347648-5.996544l-1.667072 9.662464c0.456704 5.945344 20.236288-1.542144 27.215872 6.52288 0 0 8.450048 6.803456 9.136128 26.128384-8.802304-16.062464-32.88064-25.67168-40.753152-19.779584-3.647488 2.80576-1.490944 11.88864-1.490944 11.88864-4.857856-5.312512-12.118016-9.20576-18.97472-10.924032 0.016384-0.016384 10.24-4.067328 9.435136-9.27744zM471.808 254.189568c5.138432-15.099904 17.659904-23.322624 25.268224-19.427328 11.134976 5.715968-2.174976 17.606656-18.290688 23.427072 15.273984-4.911104 32.352256-3.823616 30.932992 5.840896-1.314816 9.029632-15.60576 12.118016-32.755712 2.052096 13.71136 10.397696 15.2576 23.77728 5.36576 26.865664-10.06592 3.086336-17.027072-6.066176-14.747648-23.883776-4.4544 16.922624-17.55136 23.549952-23.953408 20.92032-10.06592-4.225024-8.398848-14.747648 17.201152-25.268224-19.605504 6.295552-32.528384 2.174976-31.162368-5.085184 1.59744-8.224768 17.833984-9.609216 32.93184-2.80576-8.855552-5.138432-15.325184-21.499904-2.752512-25.268224 7.942144-2.349056 17.32608 5.419008 11.958272 22.64064l0.004096-0.008192zM161.005568 275.443712c1.64864-8.347648 6.926336-12.695552 10.450944-10.397696 5.261312 3.489792-0.17408 9.889792-7.13728 12.8 6.627328-2.455552 14.342144-1.490944 14.114816 3.893248-0.17408 5.033984-6.4 6.52288-14.57152 0.561152 6.627328 6.066176 7.890944 13.606912 3.59424 15.099904-4.349952 1.59744-7.890944-3.71712-7.663616-13.66016-1.261568 9.435136-6.752256 12.853248-9.785344 11.257856-4.75136-2.629632-4.401152-8.450048 6.57408-13.836288-8.521728 3.137536-14.467072 0.579584-14.186496-3.489792 0.350208-4.524032 7.540736-5.033984 14.57152-0.858112-4.173824-3.086336-7.821312-12.396544-2.332672-14.290944 3.508224-1.122304 8.013824 3.436544 6.365184 12.924928l0.006144-0.004096zM74.747904 295.573504c0.526336-9.259008 6.066176-14.6944 10.801152-12.7488 6.926336 2.92864 1.437696 10.592256-6.4512 14.747648 7.610368-3.612672 17.027072-3.770368 17.711104 1.998848 0.630784 5.43744-6.680576 7.99744-17.534976 2.73408 9.029632 5.593088 11.83744 13.432832 6.961152 15.712256-5.033984 2.349056-10.170368-2.80576-11.608064-13.502464 0.106496 10.223616-6.066176 14.800896-9.889792 13.555712-6.121472-2.06848-6.803456-8.398848 5.541888-15.781888-9.715712 4.62848-17.37728 2.73408-17.659904-1.59744-0.403456-5.033984 8.224768-6.52288 17.50016-3.209216-5.664768-2.68288-11.608064-12.118016-5.312512-14.870528 3.995648-1.785856 10.221568 2.439168 9.940992 12.961792zM164.143104 328.839168c5.541888-13.502464 17.2544-19.324928 23.77728-14.747648 9.609216 6.926336-3.086336 16.238592-17.887232 19.427328 13.940736-2.525184 29.145088 0.858112 27.267072 9.715712-1.824768 8.224768-14.800896 9.136128-29.372416-2.56 11.485184 11.538432 12.013568 24.287232 2.912256 25.776128-9.20576 1.59744-14.747648-7.890944-11.556864-24.356864-5.085184 15.2576-17.201152 19.658752-22.69184 16.34304-8.751104-5.382144-6.52288-14.974976 17.027072-21.270528-17.938432 3.209216-29.21472-2.455552-27.426816-9.029632 1.947648-7.43424 16.467968-6.52288 29.564928 1.947648-7.610368-6.121472-12.292096-22.288384-0.735232-24.076288 7.176192-1.124352 15.015936 7.520256 9.121792 22.831104zM59.47392 418.588672c-7.366656 0.106496-23.216128 16.922624-26.40896 32.512-6.121472-16.869376-3.209216-22.411264-3.209216-22.411264 2.68288-9.136128 24.006656-13.256704 23.093248-19.202048-1.193984-3.262464-4.75136-8.978432-4.75136-8.978432l9.20576 2.963456c5.873664 0.278528 1.245184-20.006912 10.06592-25.724928 0 0 7.821312-7.31136 26.742784-5.36576-16.850944 6.4-29.671424 27.899904-24.287232 37.228544 2.279424 3.946496 10.801152 3.016704 10.801152 3.016704-5.873664 3.96288-10.627072 10.592256-13.256704 16.941056 0.016384 0-2.787328-11.046912-7.99744-10.97728l0.002048-0.002048zM614.197248 211.263488c-3.770368-2.73408-31.318016 9.259008-31.318016 9.259008 4.962304-7.593984 7.366656-15.835136 7.366656-15.835136 5.593088-4.75136 18.5344-1.366016 22.585344-2.525184-0.684032-1.59744 0.456704-7.31136 0.456704-7.31136l5.490688 4.575232c3.71712-0.403456 9.029632-12.118016 17.149952-12.118016 0 0 11.10016 6.172672 19.675136 7.99744-15.501312 1.718272-30.633984 6.57408-29.845504 13.73184 0.630784 3.489792 5.715968 7.540736 5.715968 7.540736l-15.765504 5.490688c-0.016384 0 1.734656-8.46848-1.507328-10.801152l-0.004096-0.004096zM875.55072 227.885056c21.76 24.63744 33.161216 13.940736 45.205504 29.845504 1.193984-10.520576-8.978432-23.322624-11.02848-26.759168 24.795136 15.552512 27.478016 18.868224 20.815872 32.93184-4.75136 9.836544 14.063616-1.824768 23.552 10.274816-7.716864-1.366016-9.662464 2.629632-18.85184 6.858752-18.36032 7.43424-25.741312-4.173824-36.018176 5.138432l-3.489792-8.450048s16.449536-2.80576 17.55136-7.768064c1.069056-4.913152-34.721792-2.054144-37.736448-42.072064zM362.881024 251.295744c15.325184 0.858112 22.061056-6.172672 18.11456-12.7488-4.120576-7.030784-14.747648-1.875968-21.200896 6.680576 6.469632-9.435136 8.067072-22.183936-1.437696-22.183936-6.418432 0.034816-9.5744 9.924608-4.646912 21.989376l-0.004096 0.002048c-5.840896-13.502464-15.43168-15.552512-18.868224-11.276288a5.888 5.888 0 0 0-1.271808 3.076096c-3.25632 1.046528-6.680576 3.801088-8.951808 7.163904 4.050944-6.506496 4.050944-14.729216-3.262464-13.940736-4.974592 0.473088-6.449152 6.965248-1.55648 14.163968-5.76512-8.044544-13.312-8.62208-15.536128-5.59104-3.54304 4.804608 6.750208 9.435136 12.924928 9.084928-9.558016 1.386496-15.659008 6.172672-12.521472 9.836544 2.736128 3.139584 10.11712 1.316864 15.43168-6.295552-5.875712 10.872832-1.64864 15.38048 4.575232 14.415872 3.874816-0.684032 6.293504-6.699008 0.227328-14.467072 2.578432 2.615296 5.117952 4.513792 7.456768 5.736448-1.42336 1.957888-1.765376 4.128768-0.618496 6.258688 2.963456 5.36576 12.695552 3.770368 20.973568-7.26016-9.592832 15.939584-5.085184 23.6032 3.086336 23.025664 5.138432-0.456704 9.381888-9.435136 3.086336-22.411264 8.013824 12.8 16.922624 16.693248 21.200896 11.02848 4.122624-5.486592-3.770368-14.010368-17.201152-16.287744z m-21.993472 0.237568c-2.53952-2.097152-7.358464-3.760128-13.361152-3.991552 4.724736-0.272384 8.267776-1.224704 10.614784-2.510848 3.34848 2.738176 7.888896 4.724736 11.497472 4.9664a33.787904 33.787904 0 0 0-8.751104 1.536z" fill="#00a5d7" /><path d="M544.178176 219.0848c2.297856 6.049792-11.327488 14.342144-11.327488 14.342144l25.163776 11.485184s-0.980992-10.520576 2.525184-15.325184c7.768064-9.259008 31.492096 2.174976 51.95776 17.729536-6.066176-16.64-13.449216-31.741952-13.449216-31.741952-9.539584-9.20576-30.12608-1.472512-35.037184-5.189632l-0.980992-11.556864s-8.224768 5.382144-9.363456 8.013824c-6.22592-3.209216-17.32608-21.83168-29.775872-22.64064 0 0-12.853248 6.858752-28.020736 10.223616-0.004096 0.018432 42.747904 10.139648 48.308224 24.659968zM726.636544 172.105728c8.505344-4.225024 16.570368-2.752512 17.606656 1.718272 1.542144 6.680576-8.505344 6.4-16.869376 2.578432 7.682048 3.823616 13.326336 10.924032 8.574976 14.342144-4.401152 3.137536-10.924032-1.087488-12.695552-11.76576 0.350208 9.486336-4.962304 15.552512-9.836544 13.029376-5.033984-2.56-3.54304-9.029632 5.138432-15.43168-9.029632 5.189632-16.623616 2.859008-17.780736-0.702464-1.77152-5.593088 3.489792-9.259008 17.2544-3.647488-9.785344-5.033984-12.62592-11.712512-8.925184-14.114816 4.173824-2.80576 10.592256 2.92864 13.04576 11.556864-0.929792-5.541888 3.946496-14.747648 10.100736-11.485184 3.928064 2.14016 3.874816 8.890368-5.613568 13.922304zM193.482752 259.905536c16.238592 41.734144 53.553152 26.986496 54.028288 32.702464 0.456704 5.593088-16.238592 13.940736-16.238592 13.940736l6.4 7.890944c8.067072-13.256704 19.728384-3.313664 36.878336-17.2544 8.46848-7.43424 9.259008-12.345344 17.956864-13.379584-14.114816-9.889792-30.353408 8.699904-28.530688-3.436544 2.578432-17.149952-1.366016-19.779584-33.038336-28.35456 3.42016 3.035136 18.464768 13.432832 20.570112 24.918016-18.079744-13.031424-26.759168 2.172928-58.025984-17.027072zM512.086016 885.106688c0 25.901056-11.83744 53.202944-40.876032 53.202944-32.405504 0-43.732992-27.322368-43.732992-53.202944 0-25.919488 11.327488-53.221376 43.732992-53.221376 29.057024 0 40.876032 27.303936 40.876032 53.221376z m-99.846144 62.359552h14.012416v-23.672832h0.509952c7.030784 16.922624 24.461312 27.338752 44.470272 27.338752 38.017024 0 56.131584-30.758912 56.131584-66.021376 0-35.280896-18.11456-66.041856-56.131584-66.041856-18.640896 0-36.755456 9.486336-43.278336 27.338752h-0.456704v-71.581696h-15.273984v172.638208l0.016384 0.002048zM630.542336 899.100672c0 20.025344-16.41472 38.193152-43.278336 38.193152-14.290944 0-28.076032-8.925184-28.076032-23.672832 0-29.145088 22.81472-31.266816 48.697344-35.842048 8.450048-1.490944 20.393984-5.646336 21.604352-7.610368h0.509952l0.54272 28.932096z m-78.596096-57.726976s20.692992-8.574976 45.662208-8.574976c17.903616 0 30.98624 5.382144 30.98624 17.37728 0 8.802304-9.136128 12.118016-38.578176 16.41472-27.267072 3.946496-47.153152 15.501312-47.153152 44.085248 0 25.145344 19.955712 40.470528 42.92608 40.470528 23.953408 0 36.64896-10.520576 45.504512-25.37472l-0.0512 21.710848h14.57152l-0.0512-88.256512c0-33.370112-23.953408-40.122368-45.907968-40.122368-29.09184 0-47.679488 9.029632-47.679488 9.029632l-0.227328 13.238272-0.002048 0.002048zM138.7008 947.46624H166.1952v-73.73824c0-18.41152 11.88864-32.86016 30.251008-32.86016 16.238592 0 23.953408 8.450048 24.410112 28.076032v78.542848h27.600896v-85.803008c0-28.076032-17.201152-42.594304-44.242944-42.594304-16.467968 0-29.09184 5.593088-37.507072 15.151104h-0.509952v-59.410432H138.702848l-0.002048 172.63616zM276.862976 844.232704h67.6864l-69.16096 83.90656v19.324928h110.034944v-21.725184H312.4224l69.337088-83.90656v-19.376128h-104.89856l0.002048 21.776384zM670.451712 947.46624h15.2576v-72.7552c0.456704-24.410112 14.974976-42.8032 39.139328-42.8032 24.63744 0 31.686656 16.238592 31.686656 37.718016v77.840384h15.202304v-80.244736c0-29.724672-10.592256-48.134144-45.662208-48.134144-17.676288 0-34.369536 10.170368-39.892992 25.163776h-0.456704v-21.499904h-15.2576v124.715008h-0.016384zM795.2896 947.46624h15.151104v-47.345664l24.690688-20.55168 49.328128 67.897344h19.167232l-56.90368-78.542848 53.23776-46.188544h-20.30592l-69.21216 60.481536v-108.388352h-15.151104l-0.002048 172.638208zM967.288832 470.013952c-10.627072-13.606912-13.502464-18.745344-13.502464-18.745344-9.310208-4.575232-19.02592 2.629632-27.547648 3.086336-1.59744-1.929216-4.050944-2.73408-7.067648-2.613248l-5.382144-7.084032s-1.193984 4.788224-5.541888 9.136128c-14.133248 4.016128-30.705664 8.347648-29.599744-5.206016 0.684032-8.855552 5.033984-10.907648 15.659008-9.435136 3.278848 0.456704 11.433984 0.806912 16.941056-3.295232 1.472512-1.140736 3.190784-1.542144 4.278272-2.402304 1.77152 3.647488 4.225024 7.18848 9.662464 4.911104 5.769216-4.120576 5.261312-9.732096 4.75136-19.427328 2.297856 6.627328 17.098752 19.202048 21.446656 12.783616 2.613248-3.893248-3.086336-15.552512-15.552512-19.427328 0 0 20.692992-1.245184 19.376128-10.627072-1.437696-10.293248-20.656128-2.279424-22.990848 0.227328 3.035136-7.206912 3.893248-21.95456-3.035136-22.74304-8.628224-0.980992-9.20576 13.78304-7.68 21.499904-5.261312-12.45184-17.887232-20.463616-22.44608-14.624768-4.349952 5.664768 5.873664 17.938432 13.764608 20.463616-19.044352 2.174976-22.130688 16.009216-39.507968 14.870528 9.259008-6.066176 12.468224-15.888384 7.43424-22.061056-4.4544-5.312512-16.975872-2.752512-22.288384 12.118016-1.140736-9.996288-6.295552-14.186496-10.416128-11.327488-5.261312 3.54304-1.667072 11.88864-4.050944 13.502464 0.806912-0.227328 1.59744-0.227328 2.349056-0.227328 11.712512 0.350208 4.52608 15.081472-7.206912 25.935872 11.380736-9.836544 26.40896-15.501312 28.706816-7.13728 2.105344 7.821312-9.029632 15.818752-27.392 14.239744 15.43168 3.086336 21.604352 13.379584 14.239744 19.658752-7.487488 6.4-16.799744 1.667072-21.270528-13.71136 2.297856 15.43168-6.506496 25.849856-13.029376 26.128384-10.170368 0.385024-12.521472-8.751104 5.715968-27.039744-14.57152 12.57472-27.267072 14.186496-28.635136 7.768064-1.542144-7.26016 11.83744-14.589952 27.322368-14.870528-9.539584-0.806912-20.973568-11.556864-11.485184-19.427328 5.963776-4.911104 16.816128-2.174976 18.481152 13.764608-0.509952-6.4512 0.858112-12.396544 3.035136-16.975872 6.733824-10.627072 6.4512-25.040896 4.911104-28.864512-4.575232-11.257856-17.37728-10.223616-19.167232-9.435136-15.818752 7.030784-14.6944 18.18624-17.659904 3.54304-2.297856-11.958272 10.293248-10.06592 17.903616-11.782144l2.226176 7.43424c15.888384-11.485184 24.479744 5.840896 51.275776-1.947648 13.53728-4.4544 16.869376-9.836544 27.426816-6.733824-11.538432-18.41152-39.561216-4.804608-31.440896-17.956864 11.380736-18.692096 8.189952-23.77728-24.410112-49.276928 2.473984 5.206016 14.81728 24.690688 11.538432 39.15776-14.57152-24.076288-32.055296-10.698752-58.92096-48.484352-1.718272 56.537088 48.92672 57.798656 46.6432 64.602112-1.437696 4.401152-11.608064 6.57408-18.745344 7.487488-0.0512-1.261568-0.509952-2.859008-1.366016-4.911104-0.929792-2.06848-5.769216-16.361472-22.339584-20.692992-11.153408-2.859008-22.462464 2.402304-28.530688 10.06592-11.88864 14.974976-45.049856 10.97728-36.931584-3.035136 2.981888-5.085184 11.276288-1.193984 15.552512-4.857856-1.982464-0.91136-1.472512-5.206016-7.610368-6.121472 3.54304-0.509952 7.084032-2.80576 7.610368-4.278272-3.086336 0.456704-5.593088-1.087488-5.945344-2.402304 1.366016-0.456704 5.330944-1.366016 5.206016-3.770368-0.12288-6.52288-14.39744-4.349952-10.047488-7.663616 6.172672-4.62848 0.6144-10.575872-3.893248-9.259008-8.521728 2.629632-13.398016 8.574976-21.446656 7.084032 0 0 14.6944-8.347648 21.270528-22.64064-11.485184-1.245184-8.2944-9.084928-3.035136-10.06592-14.256128 1.384448-22.9376 24.813568-31.686656 25.444352 6.875136-14.467072 7.890944-24.461312 7.26016-32.68608-8.505344 3.823616-14.800896 18.798592-16.062464 25.5488-1.122304 6.52288-5.490688 6.627328-6.680576 0.78848-2.80576-15.378432-9.732096-20.570112-12.292096-22.411264-2.73408 2.963456-5.261312 11.556864-4.173824 19.675136-5.261312-10.627072-8.347648-14.239744-12.099584-16.009216-13.326336 14.239744-12.414976 30.302208-12.414976 30.302208 4.575232-5.945344 10.749952-8.574976 14.94016-6.52288 8.628224 4.4544-1.613824 13.606912-14.012416 18.061312 11.76576-3.770368 24.866816-2.963456 23.760896 4.4544-1.03424 6.979584-12.013568 9.381888-25.217024 1.59744 10.539008 8.013824 11.782144 18.290688 4.173824 20.692992-7.821312 2.402304-13.152256-4.698112-11.362304-18.41152-3.436544 13.029376-13.502464 18.18624-18.464768 16.115712-7.716864-3.313664-6.4-11.327488 13.256704-19.427328-15.028224 4.857856-25.040896 1.667072-23.953408-3.893248 1.193984-6.4 13.71136-7.43424 25.321472-2.174976-6.71744-3.928064-11.679744-16.22016-2.473984-19.376128h-0.002048c-7.716864-11.712512-17.903616-21.200896-31.510528-19.1488-3.946496 0.735232-6.803456 3.190784-9.259008 6.4512-1.245184-5.261312-11.59168-8.855552-28.96896-4.857856 6.4512-7.417856 12.7488-25.25184 5.085184-27.547648-7.0144-2.121728-14.974976 8.978432-16.51712 23.322624-3.946496-15.43168-15.028224-23.830528-21.024768-20.340736-6.172672 3.54304-2.297856 18.921472 8.699904 26.058752-13.275136-1.261568-22.183936-1.667072-27.109376 5.490688-1.419264 1.998848-3.137536 8.04864 2.525184 11.433984-6.4-1.718272-11.327488 1.261568-12.924928 5.033984-2.279424-0.456704-9.486336-0.91136-10.11712 9.381888-0.579584 11.311104-7.610368 7.417856-5.996544 3.71712 4.102144-9.435136 3.54304-23.042048 2.963456-25.092096-11.485184 5.033984-18.290688 19.427328-16.869376 34.70336 0.456704 4.980736-3.997696 4.62848-3.59424 0.579584 1.875968-18.008064-3.823616-27.267072-10.749952-35.948544-0.350208 2.279424-1.437696 3.59424-1.998848 5.36576-1.542144-4.225024-5.189632-5.715968-7.206912-5.945344 4.120576 16.570368-3.035136 21.200896 4.120576 37.894144-14.81728-4.173824-8.347648-19.955712-20.412416-27.392-0.735232 8.574976-10.520576 10.627072-15.484928 7.084032 4.4544-0.403456 9.084928-4.4544 9.94304-6.52288-1.892352-1.947648-6.803456-4.296704-12.345344-5.033984 4.278272-1.03424 8.118272-3.66592 11.257856-8.17152-7.663616 0.509952-8.067072-5.715968-2.80576-9.662464-3.086336-0.579584-7.487488 0.630784-8.628224 1.542144 0.630784-1.437696 1.245184-2.859008 0.91136-5.541888 0 0-2.455552 0.350208-4.62848 3.209216 1.087488-1.472512 1.542144-5.43744 0.858112-7.13728-2.525184 0.91136-5.085184 4.349952-6.627328 7.890944 0.350208-2.525184 0.17408-6.121472-0.858112-7.26016-6.172672 2.859008-8.118272 9.539584-9.029632 14.57152-0.735232-4.788224-2.963456-6.858752-2.963456-6.858752-1.366016 0.980992-3.086336 4.173824-4.050944 9.101312-0.403456-1.366016-1.366016-5.382144-2.402304-5.840896-2.963456 8.398848-3.313664 15.765504 2.629632 24.971264 1.998848 3.086336 5.892096 4.857856 6.627328 8.118272 2.752512 13.432832-21.725184 17.32608-21.725184 17.32608 7.38304-7.540736 12.345344-16.467968 11.556864-25.4976-5.664768 1.140736-11.153408 6.172672-13.78304 9.889792 1.77152-4.980736 4.75136-13.432832 2.963456-19.605504-6.803456 3.313664-10.467328 9.486336-11.608064 13.256704-1.193984-5.715968-0.735232-6.295552-3.997696-11.380736-5.382144-8.17152-25.776128-9.101312-31.266816 9.715712-1.59744-2.56-9.662464-5.541888-10.520576-5.312512-0.684032 6.121472 4.050944 15.552512 5.945344 18.343936-7.084032-9.996288-14.800896-12.521472-17.606656-12.924928 0.702464 6.172672 5.664768 15.028224 11.556864 20.586496-13.940736-12.414976-24.690688-1.892352-25.849856 4.507648-1.03424-15.081472-11.327488-21.0432-11.327488-21.0432-13.203456 16.467968-7.366656 31.389696-2.121728 36.702208-3.647488 14.52032-19.324928 5.382144-12.853248-2.052096 3.086336-4.173824-2.5088-14.6944-16.34304-3.997696 16.922624-14.239744-10.8544-25.849856-9.836544-3.086336-5.033984-21.936128-30.932992-4.102144-9.715712 7.206912-22.235136-7.99744-25.321472 18.745344-0.299008 12.013568-2.912256 2.629632-8.17152 11.83744-1.59744 14.923776 5.787648 2.68288 10.11712-5.382144 10.870784-11.153408 1.875968 7.43424 8.978432 11.257856 16.850944 7.942144 4.75136-1.998848 7.942144 1.667072 8.067072 4.173824 0.106496 2.455552-3.209216 7.43424-14.342144 3.035136 4.75136 16.062464-11.485184 19.675136-18.640896 9.785344-3.893248-5.312512-24.918016-9.94304-24.918016-9.94304 2.912256 10.11712-15.378432 32.02048-23.552 22.532096-3.54304-4.120576 3.436544-11.327488 3.436544-11.327488 9.084928-11.83744-23.375872-16.238592-24.356864-2.859008-2.578432-1.193984-10.1888-1.77152-14.290944-0.12288 5.769216-3.016704 11.941888-16.34304 5.769216-19.253248-6.961152-3.313664-14.012416 6.57408-15.552512 14.800896-0.403456-11.556864-6.926336-22.532096-14.186496-18.343936-5.490688 3.137536-1.875968 15.60576 4.857856 20.850688-9.259008-4.278272-19.779584-5.593088-21.374976 1.59744-1.824768 8.013824 12.57472 11.10016 20.516864 8.241152-8.067072 8.450048-9.609216 19.359744-2.963456 21.884928 7.030784 2.68288 13.152256-3.47136 15.081472-13.993984-0.0512 3.893248 0.858112 7.417856 3.035136 10.223616-3.612672 4.788224-5.715968 10.678272-13.379584 14.57152-12.414976 6.3488-22.585344 4.911104-22.130688 13.099008 0.278528 6.330368 13.836288 5.43744 23.953408-4.524032 14.012416-13.590528 23.216128 8.802304 9.101312 17.606656-3.436544 2.174976-10.627072-0.806912-15.325184-2.052096-17.149952-4.575232-18.130944 11.276288-0.403456 20.586496l395.587584 274.644992 369.565696-261.965824c5.206016-3.366912 8.347648-5.945344 12.906496-9.836544l22.990848 2.613248s-6.627328-8.118272-3.893248-13.152256c3.958784-7.200768 17.496064-15.671296 48.185344-5.500928z m-785.719296-31.19104h0.004096c-5.261312 2.402304 2.174976 14.94016 2.68288 16.185344 0 0-8.17152-0.385024-13.203456 0.509952 0 0 5.664768-14.39744-1.59744-18.18624-15.099904-6.961152-31.950848 8.751104-40.298496 4.016128 10.801152-3.035136 15.43168-16.449536 25.092096-15.552512 3.770368 0.350208 13.152256 6.961152 15.781888 6.3488 0 0 0-7.716864 0.91136-8.873984 2.525184 1.490944 4.927488 7.33184 6.066176 8.364032 1.140736 0.964608 9.609216-3.278848 21.0944-1.947648 7.31136 2.121728 16.449536 14.57152 17.098752 21.499904-15.220736-13.73184-30.826496-13.73184-33.632256-12.363776z m108.621824-12.591104c-5.787648-1.613824-7.839744-3.313664-11.083776-5.840896 0.735232 2.80576 4.225024 8.2944 1.718272 11.661312-3.209216 2.629632-6.752256-0.91136-8.521728-2.5088-1.087488-1.10592-2.402304-4.524032-3.54304-7.890944-0.735232 0.980992-11.257856 8.17152-15.43168 2.73408-0.227328-5.261312 8.398848-6.858752 11.153408-8.802304-3.893248 1.140736-12.363776-3.893248-13.78304-5.138432-2.174976-2.174976 0.350208-3.10272 1.59744-3.612672 5.382144-2.105344 11.153408-0.17408 15.958016 3.155968-0.91136-2.73408-6.22592-7.540736-1.59744-11.661312l2.80576-1.140736c3.54304 0.12288 4.62848 1.718272 5.664768 2.752512 2.402304 2.279424 2.963456 5.769216 2.525184 8.278016 0.78848-1.824768 7.206912-4.384768 7.206912-4.384768 5.43744-2.629632 9.609216 2.174976 5.261312 5.490688l-6.156288 4.102144v0.002048c14.399488 5.38624 11.433984 11.71456 6.22592 12.804096z m52.903936-52.86912c0 1.261568-0.227328 2.402304-0.630784 3.436544l9.381888 2.5088c1.718272 0.456704 2.752512-0.964608 4.804608-0.684032 1.77152 0.227328 3.035136 1.718272 2.402304 3.209216-0.630784 1.490944-2.402304 2.06848-4.102144 1.366016-2.226176-0.858112-1.824768-2.56-3.436544-2.963456l-9.435136-2.56c-0.980992 1.947648-2.578432 3.59424-4.62848 4.75136l5.945344 6.752256c1.03424 1.193984 2.92864 0.561152 4.401152 1.77152 1.261568 0.964608 1.314816 2.912256-0.350208 3.71712-1.52576 0.929792-3.401728 0.595968-4.313088-0.770048v0.002048c-1.140736-1.824768 0.456704-2.963456-0.579584-4.173824l-5.945344-6.803456c-1.998848 1.03424-4.296704 1.59744-6.803456 1.59744l-0.17408 8.521728c0 1.437696 1.947648 1.875968 2.279424 3.612672 0.299008 1.366016-0.964608 2.859008-2.912256 2.859008-1.875968-0.106496-3.137536-1.245184-2.92864-2.859008 0.350208-1.947648 2.455552-2.174976 2.455552-3.612672V384.4096c-2.455552-0.17408-4.75136-0.91136-6.627328-2.052096l-6.172672 7.030784c-1.03424 1.193984 0.278528 2.455552-0.630784 4.050944-0.806912 1.261568-2.92864 1.824768-4.4544 0.858112-1.437696-0.980992-1.59744-2.578432-0.350208-3.612672 1.77152-1.472512 3.54304-0.684032 4.575232-1.824768l6.22592-7.084032c-1.77152-1.261568-3.155968-2.859008-3.946496-4.804608l-10.06592 2.73408c-1.667072 0.456704-1.542144 2.174976-3.366912 2.92864-1.59744 0.684032-3.647488 0.106496-4.225024-1.437696-0.509952-1.490944 0.509952-2.859008 2.349056-3.137536 2.402304-0.350208 3.313664 1.193984 4.911104 0.78848l10.11712-2.68288a8.704 8.704 0 0 1-0.403456-2.752512c0-1.03424 0.227328-2.052096 0.579584-3.086336l-10.06592-2.68288c-1.667072-0.456704-2.752512 0.964608-4.857856 0.735232-1.718272-0.227328-3.035136-1.718272-2.349056-3.209216 0.630784-1.490944 2.455552-2.06848 4.120576-1.437696 2.226176 0.858112 1.77152 2.56 3.436544 3.035136l9.996288 2.73408a12.04224 12.04224 0 0 1 4.173824-4.75136l-6.049792-6.926336c-1.03424-1.193984-2.981888-0.579584-4.401152-1.824768-1.261568-0.980992-1.261568-2.80576 0.350208-3.71712 1.542144-0.858112 3.42016-0.509952 4.278272 0.858112 1.140736 1.824768-0.385024 2.963456 0.630784 4.102144l6.049792 6.979584c1.998848-1.140736 4.349952-1.77152 6.875136-1.824768v-8.398848c0-1.490944-1.998848-1.875968-2.349056-3.612672-0.227328-1.437696 1.03424-2.912256 2.963456-2.859008 1.875968 0.106496 3.137536 1.245184 2.912256 2.80576-0.385024 2.052096-2.455552 2.226176-2.455552 3.59424v8.450048c2.578432 0.0512 4.980736 0.684032 6.979584 1.824768l5.840896-6.627328c1.03424-1.140736-0.299008-2.455552 0.630784-3.997696 0.806912-1.314816 2.92864-1.875968 4.401152-0.91136 1.490944 1.03424 1.667072 2.629632 0.403456 3.66592-1.77152 1.472512-3.612672 0.684032-4.575232 1.824768l-5.840896 6.627328c1.947648 1.261568 3.436544 2.963456 4.296704 5.033984l9.310208-2.525184c1.718272-0.456704 1.542144-2.174976 3.366912-2.963456 1.542144-0.630784 3.647488-0.106496 4.225024 1.490944 0.456704 1.472512-0.509952 2.859008-2.349056 3.086336-2.455552 0.350208-3.313664-1.140736-4.911104-0.735232l-9.381888 2.5088c0.274432 0.86016 0.39936 1.77152 0.39936 2.684928z m99.954688-4.610048c-7.43424-2.06848-10.11712-4.296704-14.239744-7.487488 0.91136 3.612672 5.43744 10.698752 2.121728 15.028224-4.050944 3.42016-8.751104-1.140736-10.960896-3.313664-1.384448-1.384448-3.035136-5.787648-4.524032-10.06592-1.03424 1.261568-14.57152 10.520576-19.955712 3.42016-0.350208-6.752256 10.801152-8.802304 14.342144-11.327488-4.980736 1.490944-15.958016-4.911104-17.780736-6.733824-2.80576-2.629632 0.456704-3.893248 2.121728-4.575232 6.909952-2.629632 14.342144-0.227328 20.570112 4.050944-1.261568-3.489792-8.04864-9.662464-2.052096-15.028224l3.54304-1.384448c4.62848 0.0512 5.945344 2.174976 7.366656 3.54304 3.086336 2.859008 3.770368 7.38304 3.209216 10.627072 1.087488-2.402304 9.259008-5.593088 9.259008-5.593088 7.030784-3.54304 12.468224 2.68288 6.803456 6.961152l-7.886848 5.419008c18.581504 6.79936 14.794752 15.07328 8.062976 16.459776z m82.470912 0.1024c-1.368064 0.806912-2.859008 0.456704-3.59424-0.91136l0.008192-0.004096c-0.966656-1.716224 0.350208-2.97984-0.49152-4.102144l-4.927488-6.803456a11.491328 11.491328 0 0 1-5.715968 1.542144l-0.106496 8.574976c0 1.472512 1.64864 1.878016 1.875968 3.59424a2.408448 2.408448 0 0 1-2.455552 2.859008c-1.544192-0.069632-2.578432-1.261568-2.402304-2.80576 0.350208-2.050048 2.06848-2.209792 2.06848-3.647488v-8.628224c-2.070528-0.17408-3.946496-0.980992-5.490688-2.121728l-5.138432 7.084032c-0.91136 1.138688 0.227328 2.5088-0.509952 4.050944-0.753664 1.316864-2.455552 1.8944-3.71712 0.858112-1.261568-0.980992-1.386496-2.525184-0.350208-3.66592 1.419264-1.472512 2.963456-0.630784 3.823616-1.77152l5.206016-7.13728a10.07616 10.07616 0 0 1-3.262464-4.804608l-8.398848 2.752512c-1.437696 0.456704-1.261568 2.123776-2.80576 2.912256-1.316864 0.684032-3.086336 0.159744-3.54304-1.437696-0.403456-1.470464 0.456704-2.859008 1.947648-3.137536 2.050048-0.352256 2.787328 1.191936 4.102144 0.78848l8.398848-2.73408c-0.176128-0.858112-0.350208-1.77152-0.350208-2.68288 0-1.140736 0.178176-2.174976 0.456704-3.086336l-8.2944-2.752512c-1.421312-0.454656-2.332672 0.98304-4.050944 0.684032-1.419264-0.17408-2.56-1.64864-1.998848-3.137536 0.579584-1.490944 1.998848-2.123776 3.436544-1.437696 1.82272 0.913408 1.542144 2.63168 2.859008 3.035136l8.2944 2.664448c0.73728-1.841152 1.9456-3.436544 3.489792-4.698112l-5.085184-6.961152c-0.86016-1.245184-2.402304-0.561152-3.66592-1.824768-1.017856-1.03424-1.017856-2.859008 0.299008-3.71712 1.316864-0.858112 2.859008-0.507904 3.59424 0.858112 0.966656 1.841152-0.350208 2.981888 0.509952 4.120576l5.103616 6.979584c1.595392-1.087488 3.524608-1.718272 5.646336-1.824768v-8.398848c0-1.560576-1.64864-1.8944-1.947648-3.612672-0.155648-1.490944 0.876544-2.963456 2.473984-2.859008 1.59744 0 2.63168 1.261568 2.402304 2.752512-0.280576 2.050048-1.998848 2.279424-1.998848 3.647488v8.450048c2.174976 0.104448 4.120576 0.735232 5.787648 1.875968l4.857856-6.680576c0.86016-1.140736-0.227328-2.525184 0.509952-3.997696 0.681984-1.314816 2.455552-1.9456 3.71712-0.91136 1.243136 0.964608 1.366016 2.6112 0.278528 3.647488-1.421312 1.472512-2.912256 0.684032-3.770368 1.824768l-4.857856 6.627328c1.595392 1.263616 2.859008 3.104768 3.54304 5.103616l7.768064-2.578432c1.366016-0.456704 1.261568-2.123776 2.80576-2.912256 1.314816-0.630784 3.086336-0.104448 3.489792 1.437696 0.456704 1.472512-0.403456 2.912256-1.947648 3.190784-1.980416 0.352256-2.736128-1.245184-4.032512-0.78848l-7.786496 2.525184c0.227328 0.91136 0.350208 1.769472 0.350208 2.73408a10.81344 10.81344 0 0 1-0.579584 3.436544l7.839744 2.5088c1.384448 0.454656 2.279424-0.964608 3.997696-0.684032 1.419264 0.24576 2.5088 1.736704 1.998848 3.209216-0.579584 1.490944-2.052096 2.06848-3.42016 1.437696-1.875968-0.86016-1.509376-2.629632-2.87744-3.086336l-7.87456-2.525184a10.233856 10.233856 0 0 1-3.823616 4.75136l4.911104 6.803456c0.91136 1.210368 2.455552 0.526336 3.71712 1.77152 1.017856 1.042432 1.017856 2.8672-0.29696 3.776512z m50.939904 19.079168c1.542144 3.997696 8.628224 7.768064 8.628224 7.768064l-17.852416 10.346496c0.016384 0.016384 0.473088-11.59168-4.313088-12.730368-17.043456-3.946496-35.790848 18.692096-35.790848 18.692096 2.24256-17.149952 3.209216-18.008064 5.664768-21.901312 4.788224-7.663616 26.23488-3.436544 26.33728-7.55712 0.17408-5.033984-1.193984-8.9088-1.193984-8.9088l7.716864 4.225024c7.31136 1.261568 7.43424-15.552512 17.2544-17.37728 9.20576-1.824768 18.11456 1.261568 26.48064 3.770368-20.92032 3.035136-35.61472 15.081472-32.93184 23.672832z m186.560512 21.342208c-19.27168 9.187328-28.004352-1.314816-38.455296 8.855552l-4.401152-7.890944s17.55136-4.4544 18.343936-9.363456c0.858112-5.033984-37.543936 1.59744-43.78624-37.105664 25.321472 21.778432 36.773888 10.11712 50.941952 24.287232 0.561152-10.293248-11.327488-21.725184-13.90592-24.918016 28.020736 12.57472 31.090688 15.552512 24.9344 29.952-4.349952 10.06592 15.028224-3.313664 26.112 7.540736-8.351744-0.509952-10.174464 3.64544-19.78368 8.64256z" fill="#00a5d7" /><path d="M565.78048 324.89472c-7.55712 2.92864-15.712256 0.630784-19.218432-4.050944 5.382144-2.562048 6.189056-6.752256 6.875136-10.170368 2.490368 8.329216 6.506496 12.169216 12.343296 14.221312zM586.983424 304.14848c-6.926336 0.630784-15.501312-0.684032-22.86592-3.209216 5.646336 4.911104 14.063616 13.484032 11.02848 19.202048 3.54304-3.770368 9.486336-11.644928 11.83744-15.992832z" fill="#FFFFFF" /><path d="M194.322432 389.599232c-10.924032-13.66016-2.629632-18.692096 1.947648-14.678016 4.050944 3.489792 5.138432 6.4 6.803456 10.749952 0.980992-3.209216 0.806912-10.575872 5.261312-12.345344 4.62848-0.735232 6.049792 4.804608 6.733824 7.43424 0.456704 1.718272 0 5.033984-0.78848 9.029632 1.261568-0.456704 15.484928-0.684032 16.29184 7.084032-2.80576 5.261312-2.349056-1.472512-15.958016 2.06848 6.52288 0.278528 12.45184 11.556864 6.803456 14.747648-5.664768 3.190784-11.661312-3.278848-13.836288-11.503616 1.03424 3.489792 2.455552 11.153408-4.524032 12.45184-3.770368 0.684032-7.942144-2.912256-8.04864-6.752256-0.106496-3.700736 0.509952-7.26016 2.455552-9.539584-10.520576 2.052096-19.605504-10.397696-11.083776-9.94304l7.942144 1.196032z" fill="#00a5d7" /></svg>