<?xml version="1.0" standalone="no"?><!DOCTYPE svg PUBLIC "-//W3C//DTD SVG 1.1//EN" "http://www.w3.org/Graphics/SVG/1.1/DTD/svg11.dtd"><svg t="1573315497363" class="icon" viewBox="0 0 1325 1024" version="1.1" xmlns="http://www.w3.org/2000/svg" p-id="7132" xmlns:xlink="http://www.w3.org/1999/xlink" width="165.625" height="128"><defs><style type="text/css"></style></defs><path d="M292.141176 558.682353l-4.517647 25.6h131.011765l6.02353-25.6h-132.517648z m332.8 25.6l4.517648-25.6h-149.082353l-6.02353 25.6h150.588235z m84.329412-123.482353l-19.57647 99.388235-6.02353 25.6-19.57647 99.388236H457.788235l-4.517647 24.094117h240.941177l31.623529-147.57647 19.576471-100.894118h290.635294l-21.082353 100.894118H783.058824l-52.705883 248.470588h-301.17647l-4.517647 24.094118h335.811764l31.62353-146.070589L813.176471 587.294118h195.764705l-19.57647 100.894117h-137.035294l-30.117647 146.070589-22.588236 99.388235h-451.764705l52.705882-246.964706H210.823529l21.082353-100.894118 4.517647-25.6 21.082353-100.894117h188.235294l52.705883-246.964706h206.305882L731.858824 90.352941H1114.352941l-21.082353 99.388235H768l-4.517647 25.6-19.576471 100.894118H536.094118l-6.02353 24.094118h243.952941l4.517647-24.094118 21.082353-99.388235h290.635295L1069.176471 316.235294H837.270588l-27.105882 121.976471H510.494118l-6.02353 24.094117h149.082353l55.717647-1.505882z" fill="#007e3e" p-id="7133"></path></svg>