<?xml version="1.0" standalone="no"?><!DOCTYPE svg PUBLIC "-//W3C//DTD SVG 1.1//EN" "http://www.w3.org/Graphics/SVG/1.1/DTD/svg11.dtd"><svg t="1573315159420" class="icon" viewBox="0 0 1024 1024" version="1.1" xmlns="http://www.w3.org/2000/svg" p-id="4803" xmlns:xlink="http://www.w3.org/1999/xlink" width="128" height="128"><defs><style type="text/css"></style></defs><path d="M6.607238 508.65981c0 277.296762 225.865143 502.076952 504.490667 502.076952 278.613333 0 504.490667-224.792381 504.490666-502.076952C1015.588571 231.363048 789.699048 6.570667 511.097905 6.570667 232.472381 6.582857 6.607238 231.375238 6.607238 508.65981z" fill="#FFFFFF" p-id="4804"></path><path d="M797.281524 547.718095v225.401905H547.59619v-73.020952h170.886096v-82.444191H547.59619V392.533333h170.886096v-75.678476H547.59619v-73.020952h249.685334v225.572571h-169.325714v75.580953h169.325714v2.742857z m-572.367238 0v225.401905H474.575238v-73.020952H303.701333v-82.444191h170.886096V392.533333H303.701333v-75.678476h170.886096v-73.020952H224.914286v225.572571h169.508571v75.580953H224.914286v2.742857z" fill="#D71E06" p-id="4805"></path><path d="M511.097905 0C228.815238 0 0 227.730286 0 508.65981 0 789.577143 228.815238 1017.319619 511.097905 1017.319619c282.270476 0 511.085714-227.742476 511.085714-508.659809v0.01219C1021.891048 227.876571 793.258667 0.316952 511.110095 0h-0.01219z m0 918.454857c-227.413333 0-411.757714-183.466667-411.757715-409.795047S283.672381 98.864762 511.097905 98.864762c227.401143 0 411.757714 183.466667 411.757714 409.795048 0.24381 226.072381-183.710476 409.539048-410.855619 409.795047h-0.914286z" fill="#D71E06" p-id="4806"></path></svg>