<?xml version="1.0" standalone="no"?><!DOCTYPE svg PUBLIC "-//W3C//DTD SVG 1.1//EN" "http://www.w3.org/Graphics/SVG/1.1/DTD/svg11.dtd"><svg class="icon" width="128px" height="128.00px" viewBox="0 0 1024 1024" version="1.1" xmlns="http://www.w3.org/2000/svg"><path d="M1002.529032 886.916129c-11.56129-28.077419-26.425806-54.503226-39.638709-80.929032-62.76129-123.870968-127.174194-249.393548-189.935484-373.264516-42.941935-85.883871-87.535484-171.767742-128.825807-259.303226-16.516129-33.032258-31.380645-64.412903-57.806451-79.27742-4.954839-3.303226-11.56129-4.954839-16.516129-4.954838H454.193548c-28.077419 4.954839-47.896774 26.425806-62.76129 57.806451-56.154839 118.916129-117.264516 236.180645-175.070968 353.445162-64.412903 128.825806-128.825806 254.348387-193.238709 381.52258-14.864516 29.729032-4.954839 47.896774 26.425806 49.548387 39.63871 1.651613 77.625806 1.651613 117.264516 0 16.516129 0 29.729032-8.258065 36.335484-23.12258 46.245161-92.490323 92.490323-184.980645 138.735484-279.122581 52.851613-105.703226 105.703226-209.754839 158.554839-315.458064 3.303226-4.954839 3.303226-11.56129 9.909677-11.561291 6.606452 0 8.258065 6.606452 9.909678 11.561291 36.335484 71.019355 72.670968 140.387097 107.354838 211.406451l188.283871 376.567742c8.258065 14.864516 18.167742 24.774194 33.032258 26.425807 42.941935 3.303226 87.535484 4.954839 130.47742 0 28.077419-1.651613 34.683871-16.516129 23.12258-41.290323z" fill="#E83A18" /><path d="M639.174194 805.987097v94.141935c0 23.122581-9.909677 34.683871-34.683871 34.683871h-181.67742c-29.729032 0-37.987097-8.258065-37.987097-39.638709 0-59.458065 1.651613-118.916129 0-180.025807-1.651613-28.077419 11.56129-39.63871 34.683871-39.63871 61.109677-1.651613 123.870968-1.651613 184.980646 0 24.774194 0 37.987097 13.212903 34.683871 39.63871-1.651613 29.729032 0 59.458065 0 90.83871z" fill="#0F6434" /></svg>