<?xml version="1.0" standalone="no"?><!DOCTYPE svg PUBLIC "-//W3C//DTD SVG 1.1//EN" "http://www.w3.org/Graphics/SVG/1.1/DTD/svg11.dtd"><svg t="1573315193529" class="icon" viewBox="0 0 1024 1024" version="1.1" xmlns="http://www.w3.org/2000/svg" p-id="5461" xmlns:xlink="http://www.w3.org/1999/xlink" width="128" height="128"><defs><style type="text/css"></style></defs><path d="M626.467215 93.967481l268.462995 278.05096 95.879641-95.879641-175.779342-188.563295C757.502724 36.439697 709.562904 17.263769 709.562904 17.263769c-147.01545-47.939821-233.307127 19.175928-233.307127 19.175928 105.467605 3.195988 150.211438 57.527785 150.211438 57.527784z" fill="#064095" p-id="5462"></path><path d="M763.8947 541.405807c-31.95988-3.195988-38.351856 12.783952-38.351856 12.783952L514.607633 768.320957c-15.97994 22.371916-31.95988-6.391976-31.95988-6.391976l-201.347246-204.543234c-15.97994-9.587964-3.195988-31.95988-3.195988-31.959881l204.543234-214.131198c12.783952-22.371916 31.95988 3.195988 31.95988 3.195988l204.543235 201.347246c15.97994 25.567904 31.95988 0 31.95988 0l111.859581-108.663593-310.010839-316.402816c-131.035509-92.683653-294.030899 31.95988-294.030899 31.959881C38.405416 256.962871 32.01344 506.249938 32.01344 506.249938c-3.195988 373.9306 281.246947 473.006229 281.246947 473.006229C607.291287 1113.487665 821.422485 896.160479 821.422485 896.160479c166.191378-137.427486 156.603414-357.95066 156.603414-357.950661h-214.131199z" fill="#064095" p-id="5463"></path></svg>