<?xml version="1.0" standalone="no"?><!DOCTYPE svg PUBLIC "-//W3C//DTD SVG 1.1//EN" "http://www.w3.org/Graphics/SVG/1.1/DTD/svg11.dtd"><svg t="1573316553199" class="icon" viewBox="0 0 1137 1024" version="1.1" xmlns="http://www.w3.org/2000/svg" p-id="1505" xmlns:xlink="http://www.w3.org/1999/xlink" width="142.125" height="128"><defs><style type="text/css"></style></defs><path d="M559.275 405.22a2439.339 2439.339 0 0 1-150.699 260.323C265.956 674.133 126.692 695.467 0 730.055 180.964 532.31 330.752 274.545 409.77 18.944h0.285c34.361 126.692 85.561 258.276 149.22 386.276" fill="#BD0016" p-id="1506"></path><path d="M408.52 665.43a2443.036 2443.036 0 0 1 301.34 0.739c79.53 119.922 168.618 230.286 262.77 322.617-262.202-59.05-561.608-60.473-823.922-1.252l-0.228-0.398 4.38-4.324 4.324-4.38 4.324-4.38 4.323-4.38 4.324-4.495 4.323-4.608 4.267-4.437 4.323-4.552 4.324-4.55 4.267-4.552 4.21-4.55 4.266-4.78 4.267-4.55 4.266-4.722 4.267-4.78 4.267-4.664 4.266-4.722 4.153-4.835 4.153-4.722 4.153-4.779 4.153-4.835 4.21-4.893 4.266-4.835 4.096-4.836A2273.735 2273.735 0 0 0 408.52 665.43" fill="#730000" p-id="1507"></path><path d="M709.86 666.112a2428.814 2428.814 0 0 1-150.585-260.836c63.715-128 114.63-259.356 147.854-386.332 81.408 256.683 230.912 516.153 414.151 712.42l-0.228 0.398c-127.43-34.361-267.605-56.377-411.192-65.65" fill="#E5001F" p-id="1508"></path><path d="M709.916 666.112c143.531 9.273 283.762 31.289 411.193 65.65L972.686 988.729c-94.15-92.33-183.239-202.695-262.77-322.617" fill="#BD0016" p-id="1509"></path><path d="M408.576 665.43c-79.019 118.897-167.31 228.863-260.096 321.706L0 730.112c126.692-34.645 265.956-56.036 408.576-64.683" fill="#E5001F" p-id="1510"></path><path d="M707.129 19c-33.223 126.977-84.139 258.276-147.911 386.22-63.659-128-114.859-259.528-149.106-386.22h297.017z" fill="#730000" p-id="1511"></path></svg>