<?xml version="1.0" standalone="no"?><!DOCTYPE svg PUBLIC "-//W3C//DTD SVG 1.1//EN" "http://www.w3.org/Graphics/SVG/1.1/DTD/svg11.dtd"><svg t="1573314931664" class="icon" viewBox="0 0 1030 1024" version="1.1" xmlns="http://www.w3.org/2000/svg" p-id="2543" xmlns:xlink="http://www.w3.org/1999/xlink" width="128.75" height="128"><defs><style type="text/css"></style></defs><path d="M302.789 438.745c39.542-32.926 91.372-48.365 142.1-40.645-11.343-23.158-55.296-95.626-153.285-95.626-90.27 0-151.08 77.981-151.08 150.607v269.233c0 11.028 4.569 20.952 13.549 27.412l80.03 60.494s15.753 13.234 15.753-6.616v-251.59c0-43.952 19.22-84.597 52.933-113.27zM889.777 298.22c0-10.555-5.671-20.165-13.548-26.466l-80.03-58.132s-15.753-12.76-15.753 6.302v238.04c0 41.275-19.22 81.448-52.933 109.017-39.543 31.665-91.373 46.474-142.1 39.07 11.343 22.212 55.296 92.002 153.285 92.002 90.27 0 151.08-75.146 151.08-144.935V298.22zM644.175 430.08l2.205-2.206c48.995-37.809 106.969-34.658 126.346-31.35-8.034-21.582-43.323-94.05-146.826-94.05-46.631 0-89.954 20.48-119.571 55.138-19.378 23.789-31.823 51.83-34.186 82.078-8.035 86.488-56.872 127.448-62.543 131.86-35.289 29.144-83.18 41.117-128.709 32.452 9.137 22.686 47.892 97.202 151.395 94.05 40.487-0.944 79.241-17.17 108.07-45.37 34.187-32.453 40.96-82.078 42.064-97.359 8.192-73.413 45.686-111.222 61.755-125.243zM515.15 1024C230.636 1024 0 794.782 0 512S230.636 0 515.15 0s515.152 229.218 515.152 512-230.637 512-515.151 512z" fill="#074195" p-id="2544"></path></svg>